<svg width="50" height="50" viewBox="0 0 50 50" fill="none" xmlns="http://www.w3.org/2000/svg">
<g id="clipboard">
<path id="Vector" d="M35.4658 6.31995L33.477 5.79007C27.8522 4.29136 25.0397 3.54203 22.8241 4.81403C20.6084 6.08603 19.8548 8.88263 18.3476 14.4758L16.2161 22.3858C14.7089 27.979 13.9553 30.7756 15.2345 32.9787C16.5137 35.1821 19.3262 35.9312 24.9512 37.43L26.94 37.96C32.5647 39.4585 35.3772 40.2079 37.5929 38.936C39.8085 37.664 40.5622 34.8673 42.0693 29.2742L44.2008 21.3642C45.7081 15.7709 46.4616 12.9743 45.1825 10.7712C43.9033 8.56799 41.0908 7.81864 35.4658 6.31995Z" stroke="#5D5FEF" stroke-width="3.125"/>
<path id="Vector_2" d="M35.1122 15.4855C35.1122 17.1815 33.7295 18.5564 32.0239 18.5564C30.3183 18.5564 28.9355 17.1815 28.9355 15.4855C28.9355 13.7895 30.3183 12.4147 32.0239 12.4147C33.7295 12.4147 35.1122 13.7895 35.1122 15.4855Z" stroke="#5D5FEF" stroke-width="3.125"/>
<path id="Vector_3" d="M24.9998 43.6382L23.0159 44.1784C17.4041 45.7065 14.5982 46.4707 12.3877 45.1736C10.1773 43.8767 9.42545 41.0252 7.92178 35.3223L5.7953 27.2571C4.29163 21.5542 3.5398 18.7028 4.81603 16.4564C5.91999 14.5132 8.33318 14.5839 11.4582 14.5837" stroke="#5D5FEF" stroke-width="3.125" stroke-linecap="round"/>
</g>
</svg>
