<svg width="25" height="24" viewBox="0 0 25 24" fill="none" xmlns="http://www.w3.org/2000/svg">
<g id="login-03">
<path id="Vector" d="M15.5 17.625C15.4264 19.4769 13.8831 21.0494 11.8156 20.9988C11.3346 20.9871 10.7401 20.8194 9.55112 20.484C6.68961 19.6769 4.20555 18.3204 3.60956 15.2816C3.5 14.723 3.5 14.0944 3.5 12.8373V11.1627C3.5 9.90561 3.5 9.27704 3.60956 8.71845C4.20555 5.67963 6.68961 4.32314 9.55112 3.516C10.7401 3.18062 11.3346 3.01293 11.8156 3.00116C13.8831 2.95058 15.4264 4.52305 15.5 6.37499" stroke="white" stroke-width="1.5" stroke-linecap="round"/>
<path id="Vector_2" d="M10.5 12H21.5M10.5 12C10.5 11.2998 12.4943 9.99153 13 9.5M10.5 12C10.5 12.7002 12.4943 14.0085 13 14.5" stroke="white" stroke-width="1.5" stroke-linecap="round" stroke-linejoin="round"/>
</g>
</svg>
