<svg width="50" height="51" viewBox="0 0 50 51" fill="none" xmlns="http://www.w3.org/2000/svg">
<g id="user-group">
<path id="Vector" d="M43.2792 38C44.8402 38 46.0819 37.0177 47.1969 35.644C49.479 32.8321 45.7319 30.585 44.3029 29.4846C42.85 28.3658 41.2279 27.7321 39.5833 27.5833M37.5 23.4167C40.3765 23.4167 42.7083 21.0848 42.7083 18.2083C42.7083 15.3319 40.3765 13 37.5 13" stroke="#5D5FEF" stroke-width="3" stroke-linecap="round"/>
<path id="Vector_2" d="M6.72091 38C5.15987 38 3.91822 37.0177 2.80339 35.644C0.521177 32.8321 4.26822 30.585 5.69735 29.4846C7.1501 28.3658 8.7722 27.7321 10.4168 27.5833M11.4585 23.4167C8.58201 23.4167 6.25016 21.0848 6.25016 18.2083C6.25016 15.3319 8.58201 13 11.4585 13" stroke="#5D5FEF" stroke-width="3" stroke-linecap="round"/>
<path id="Vector_3" d="M16.8414 31.9817C14.7127 33.2979 9.13139 35.9856 12.5308 39.3487C14.1914 40.9917 16.0408 42.1667 18.3661 42.1667H31.6343C33.9595 42.1667 35.8089 40.9917 37.4695 39.3487C40.8689 35.9856 35.2877 33.2979 33.1589 31.9817C28.167 28.895 21.8333 28.895 16.8414 31.9817Z" stroke="#5D5FEF" stroke-width="3" stroke-linecap="round" stroke-linejoin="round"/>
<path id="Vector_4" d="M32.2918 16.125C32.2918 20.1521 29.0272 23.4167 25.0002 23.4167C20.9731 23.4167 17.7085 20.1521 17.7085 16.125C17.7085 12.0979 20.9731 8.83334 25.0002 8.83334C29.0272 8.83334 32.2918 12.0979 32.2918 16.125Z" stroke="#5D5FEF" stroke-width="3"/>
</g>
</svg>
