<svg width="50" height="51" viewBox="0 0 50 51" fill="none" xmlns="http://www.w3.org/2000/svg">
<g id="user-multiple">
<path id="Vector" d="M38.7834 42.1667H39.8046C42.2 42.1667 44.1055 41.0752 45.8163 39.5492C50.1623 35.6721 39.9459 31.75 36.4582 31.75M32.2915 11.0599C32.7646 10.9661 33.2559 10.9167 33.7598 10.9167C37.5513 10.9167 40.6248 13.7149 40.6248 17.1667C40.6248 20.6184 37.5513 23.4167 33.7598 23.4167C33.2559 23.4167 32.7646 23.3673 32.2915 23.2733" stroke="#5D5FEF" stroke-width="3.125" stroke-linecap="round"/>
<path id="Vector_2" d="M9.33607 34.065C6.87988 35.3813 0.439872 38.069 4.36225 41.4321C6.27832 43.075 8.41232 44.25 11.0953 44.25H26.4048C29.0877 44.25 31.2217 43.075 33.1377 41.4321C37.0602 38.069 30.6202 35.3813 28.164 34.065C22.4042 30.9783 15.0958 30.9783 9.33607 34.065Z" stroke="#5D5FEF" stroke-width="3.125"/>
<path id="Vector_3" d="M27.0832 16.125C27.0832 20.7274 23.3521 24.4583 18.7498 24.4583C14.1475 24.4583 10.4165 20.7274 10.4165 16.125C10.4165 11.5226 14.1475 7.79166 18.7498 7.79166C23.3521 7.79166 27.0832 11.5226 27.0832 16.125Z" stroke="#5D5FEF" stroke-width="3.125"/>
</g>
</svg>
